<svg xmlns="http://www.w3.org/2000/svg" xmlns:xlink="http://www.w3.org/1999/xlink" id="Layer_1" x="0" y="0" baseProfile="tiny" version="1.1" viewBox="0 0 450 272" xml:space="preserve"><g><path fill="#C8C6C6" d="M435.91,272.12H15.19C7.36,272.12,1,265.76,1,257.92V14.85C1,7.01,7.36,0.66,15.19,0.66h420.71 c7.84,0,14.19,6.36,14.19,14.19v243.07C450.1,265.76,443.75,272.12,435.91,272.12z"/><path fill="#868585" d="M1.44,20.26L1,14.81C1,6.99,7.34,0.66,15.15,0.66h420.79c7.82,0,14.15,6.34,14.15,14.15v6.83"/><circle cx="18.39" cy="11.29" r="4.99" fill="#DC5958"/><circle cx="35.35" cy="11.29" r="4.99" fill="#DAC457"/><circle cx="52.3" cy="11.29" r="4.99" fill="#51B156"/></g><circle cx="222.34" cy="144.43" r="64.54" fill="#FFF"/><rect width="314.12" height="137.75" x="208.26" y="124.62" fill="none"/><text fill="#C8C6C6" font-family="'TitilliumWeb-Bold'" font-size="71.795" transform="matrix(1 0 0 1 208.2568 170.8926)">?</text></svg>