<svg xmlns="http://www.w3.org/2000/svg" xmlns:xlink="http://www.w3.org/1999/xlink" id="Layer_1" x="0" y="0" baseProfile="tiny" version="1.1" viewBox="0 0 450 272" xml:space="preserve"><g><path fill="#C9C7C7" d="M435.81,271.62H14.41c-7.84,0-14.19-6.36-14.19-14.19V13.94c0-7.84,6.36-14.19,14.19-14.19h421.4 c7.84,0,14.19,6.36,14.19,14.19v243.49C450,265.27,443.64,271.62,435.81,271.62z"/><path fill="#878686" d="M0.66,19.38l-0.44-5.46c0-7.83,6.35-14.18,14.18-14.18h421.43c7.83,0,14.18,6.35,14.18,14.18v6.84"/><circle cx="17.63" cy="10.39" r="4.99" fill="#DD5958"/><circle cx="34.61" cy="10.39" r="4.99" fill="#DBC558"/><circle cx="51.59" cy="10.39" r="4.99" fill="#52B257"/></g><rect width="343.54" height="233.69" x="66.15" y="30.54" fill="#444345"/><rect width="25.97" height="233.69" x="40.18" y="30.54" fill="#333"/><text fill="#FFF" font-family="'IBMPlexMono'" font-size="13.982" transform="matrix(1 0 0 1 51.6992 49.5161)">1</text><text fill="#FFF" font-family="'IBMPlexMono'" font-size="13.982" transform="matrix(1 0 0 1 51.6992 67.8916)">2</text><text fill="#FFF" font-family="'IBMPlexMono'" font-size="13.982" transform="matrix(1 0 0 1 51.6992 86.2676)">3</text><text fill="#FFF" font-family="'IBMPlexMono'" font-size="13.982" transform="matrix(1 0 0 1 51.6992 104.6431)">4</text><text fill="#FFF" font-family="'IBMPlexMono'" font-size="13.982" transform="matrix(1 0 0 1 51.6992 123.0186)">5</text><text fill="#FFF" font-family="'IBMPlexMono'" font-size="13.982" transform="matrix(1 0 0 1 51.6992 141.3945)">6</text><text fill="#FFF" font-family="'IBMPlexMono'" font-size="13.982" transform="matrix(1 0 0 1 51.6992 159.7695)">7</text><text fill="#FFF" font-family="'IBMPlexMono'" font-size="13.982" transform="matrix(1 0 0 1 51.6992 178.1455)">8</text><text fill="#FFF" font-family="'IBMPlexMono'" font-size="13.982" transform="matrix(1 0 0 1 51.6992 196.5215)">9</text><text fill="#FFF" font-family="'IBMPlexMono'" font-size="13.982" transform="matrix(1 0 0 1 43.3105 214.8965)">10</text><text fill="#FFF" font-family="'IBMPlexMono'" font-size="13.982" transform="matrix(1 0 0 1 43.3105 233.2725)">11</text><text fill="#FFF" font-family="'IBMPlexMono'" font-size="13.982" transform="matrix(1 0 0 1 43.3105 251.6484)">12</text><text fill="#FFF" font-family="'IBMPlexMono-Light'" font-size="13.982" transform="matrix(1 0 0 1 78.064 49.5161)">// main.cpp</text><text fill="#FFF" font-family="'IBMPlexMono-Light'" font-size="13.982" transform="matrix(1 0 0 1 78.064 67.8916)">#include &lt;QApplication&gt;</text><text fill="#FFF" font-family="'IBMPlexMono-Light'" font-size="13.982" transform="matrix(1 0 0 1 78.064 86.2676)">#include &lt;QTableView&gt;</text><text fill="#FFF" font-family="'IBMPlexMono-Light'" font-size="13.982" transform="matrix(1 0 0 1 78.064 104.6431)">#include &quot;mymodel.h&quot;</text><text fill="#FFF" font-family="'IBMPlexMono-Light'" font-size="13.982" transform="matrix(1 0 0 1 78.064 141.3945)">int main(int argc, char *argv[])</text><text fill="#FFF" font-family="'IBMPlexMono-Light'" font-size="13.982" transform="matrix(1 0 0 1 78.064 178.1455)">{</text><text fill="#FFF" font-family="'IBMPlexMono-Light'" font-size="13.982" transform="matrix(1 0 0 1 78.064 196.5215)">QApplication a(argc, argv);</text><text fill="#FFF" font-family="'IBMPlexMono-Light'" font-size="13.982" transform="matrix(1 0 0 1 78.064 214.8965)">QTableView tableView;</text><text fill="#FFF" font-family="'IBMPlexMono-Light'" font-size="13.982" transform="matrix(1 0 0 1 78.064 233.2725)">MyModel myModel;</text><text fill="#FFF" font-family="'IBMPlexMono-Light'" font-size="13.982" transform="matrix(1 0 0 1 78.064 251.6484)">}</text></svg>