<svg xmlns="http://www.w3.org/2000/svg" xmlns:xlink="http://www.w3.org/1999/xlink" id="Layer_1" x="0" y="0" baseProfile="tiny" version="1.1" viewBox="0 0 450 272" xml:space="preserve"><g><path fill="#C9C7C7" d="M377.11,224.13H33.89c-7.84,0-14.19-6.36-14.19-14.19V13.71c0-7.84,6.36-14.19,14.19-14.19h343.21 c7.84,0,14.19,6.36,14.19,14.19v196.23C391.3,217.78,384.95,224.13,377.11,224.13z"/><path fill="#878686" d="M20.06,15.74l-0.37-4.51c0-6.47,5.24-11.71,11.71-11.71h348.18c6.47,0,11.71,5.24,11.71,11.71v5.65"/><circle cx="34.09" cy="8.31" r="4.13" fill="#DD5958"/><circle cx="48.12" cy="8.31" r="4.13" fill="#DBC558"/><circle cx="62.14" cy="8.31" r="4.13" fill="#52B257"/></g><rect width="277.09" height="185.41" x="63.92" y="25.97" fill="#949292"/><g><path fill="none" stroke="#FFF" stroke-linecap="round" stroke-miterlimit="10" stroke-width="7.867" d="M153.93,111.58 c0-26.07,21.13-47.2,47.2-47.2s47.2,21.13,47.2,47.2s-21.13,47.2-47.2,47.2"/><circle cx="200.14" cy="111.25" r="21.12" fill="#FFF"/><text fill="#FFF" font-family="'TitilliumWeb-Bold'" font-size="26.184" transform="matrix(1 0 0 1 123.5649 108.1074)">1</text><text fill="#FFF" font-family="'TitilliumWeb-Bold'" font-size="26.184" transform="matrix(1 0 0 1 248.9873 71.7993)">2</text><text fill="#FFF" font-family="'TitilliumWeb-Bold'" font-size="26.184" transform="matrix(1 0 0 1 202.1196 190.623)">3</text></g><g><g><path fill="#C9C7C7" d="M412.27,272h-73c-7.84,0-14.19-6.36-14.19-14.19V89.58c0-7.84,6.36-14.19,14.19-14.19h73 c7.84,0,14.19,6.36,14.19,14.19v168.22C426.47,265.64,420.11,272,412.27,272z"/><path fill="#878686" d="M325.4,89.59l-0.32-3.95c0-5.66,4.59-10.25,10.25-10.25h80.88c5.66,0,10.25,4.59,10.25,10.25v4.94"/></g><rect width="147.32" height="83.73" x="302.37" y="133.85" fill="#949292" transform="matrix(-1.836970e-16 1 -1 -1.836970e-16 551.7495 -200.3197)"/><g><path fill="none" stroke="#FFF" stroke-linecap="round" stroke-miterlimit="10" stroke-width="3.707" d="M355.31,172.15 c0-12.28,9.96-22.24,22.24-22.24c12.28,0,22.24,9.96,22.24,22.24c0,12.28-9.96,22.24-22.24,22.24"/><circle cx="377.08" cy="171.99" r="9.95" fill="#FFF"/><text fill="#FFF" font-family="'TitilliumWeb-Bold'" font-size="12.338" transform="matrix(1 0 0 1 341 170.5078)">1</text><text fill="#FFF" font-family="'TitilliumWeb-Bold'" font-size="12.338" transform="matrix(1 0 0 1 400.0977 153.4004)">2</text><text fill="#FFF" font-family="'TitilliumWeb-Bold'" font-size="12.338" transform="matrix(1 0 0 1 378.0137 209.3896)">3</text></g></g></svg>